<svg id="Layer_1" data-name="Layer 1" xmlns="http://www.w3.org/2000/svg" viewBox="0 0 258 37"><defs><style>.cls-1{fill:#a7a9ac;}.cls-2{fill:#a6ce39;}.cls-3{fill:#fff;}</style></defs><title>ORCIDiDOptimizerArtboard 24</title><path class="cls-1" d="M10.25,9.76A9.39,9.39,0,0,1,20,19.42a9.39,9.39,0,0,1-9.78,9.66A9.38,9.38,0,0,1,.51,19.42,9.38,9.38,0,0,1,10.25,9.76Zm0,3.52c-3.44,0-5.65,2.64-5.65,6.14s2.21,6.13,5.65,6.13,5.69-2.66,5.69-6.13S13.7,13.28,10.25,13.28Z"/><path class="cls-1" d="M29.71,22.05H26.8v6.69h-4V10.06h8.73c3.89,0,6.27,2.55,6.27,6a5.37,5.37,0,0,1-4.08,5.55L38,28.74H33.38ZM31,13.48H26.8v5.15H31a2.58,2.58,0,1,0,0-5.15Z"/><path class="cls-1" d="M39.93,19.42a9.45,9.45,0,0,1,9.8-9.66,8.64,8.64,0,0,1,8,4.56L54.27,16a5.11,5.11,0,0,0-4.54-2.72c-3.24,0-5.71,2.61-5.71,6.14a5.8,5.8,0,0,0,5.71,6.13,5.06,5.06,0,0,0,4.54-2.72l3.42,1.65a8.68,8.68,0,0,1-8,4.6A9.45,9.45,0,0,1,39.93,19.42Z"/><path class="cls-1" d="M60.07,10.06h4V28.74h-4Z"/><path class="cls-1" d="M67.74,10.06H75.1C81,10.06,85,13.79,85,19.42S81,28.74,75.1,28.74H67.74ZM75.1,25.24A5.59,5.59,0,0,0,81,19.42c0-3.31-2-5.86-5.85-5.86H71.71V25.24Z"/><path class="cls-1" d="M144.37,9.76a9.38,9.38,0,0,1,9.77,9.66,9.76,9.76,0,0,1-19.51,0A9.37,9.37,0,0,1,144.37,9.76Zm0,3.52c-3.44,0-5.65,2.64-5.65,6.14s2.21,6.13,5.65,6.13,5.69-2.66,5.69-6.13S147.82,13.28,144.37,13.28Z"/><path class="cls-1" d="M156.86,33.89V15.22h3.56v1.7a5.23,5.23,0,0,1,4.17-2c3.47,0,6,2.58,6,7.08s-2.52,7.12-6,7.12A5.16,5.16,0,0,1,160.42,27v6.89ZM163.47,18a4,4,0,0,0-3.05,1.54v4.79a4.05,4.05,0,0,0,3.05,1.54c2,0,3.41-1.59,3.41-3.95S165.51,18,163.47,18Z"/><path class="cls-1" d="M173.94,25.38V18.32H171.7v-3.1h2.24v-3.7h3.58v3.7h2.75v3.1h-2.75v6.11c0,.84.45,1.48,1.24,1.48a1.93,1.93,0,0,0,1.23-.39l.75,2.69a4.4,4.4,0,0,1-3,.87C175.28,29.08,173.94,27.79,173.94,25.38Z"/><path class="cls-1" d="M182.34,11.1a2.13,2.13,0,1,1,2.13,2.13A2.14,2.14,0,0,1,182.34,11.1Zm.36,4.12h3.56V28.74H182.7Z"/><path class="cls-1" d="M206.56,20.2c0-1.26-.56-2.16-2-2.16a3.6,3.6,0,0,0-2.8,1.57v9.13h-3.58V20.2c0-1.26-.56-2.16-2-2.16a3.64,3.64,0,0,0-2.8,1.6v9.1h-3.55V15.22h3.55V17a5.94,5.94,0,0,1,4.43-2.1,3.58,3.58,0,0,1,3.75,2.46,5.73,5.73,0,0,1,4.65-2.46c2.49,0,4,1.32,4,4.09v9.77h-3.58Z"/><path class="cls-1" d="M213.28,11.1A2.14,2.14,0,0,1,215.41,9a2.13,2.13,0,0,1,0,4.26A2.14,2.14,0,0,1,213.28,11.1Zm.36,4.12h3.56V28.74h-3.56Z"/><path class="cls-1" d="M220.14,26.08l6.1-7.76h-6.1v-3.1h10.92v2.57l-6.19,7.84h6.3v3.11h-11Z"/><path class="cls-1" d="M240.27,14.88c4,0,6.78,3,6.78,7.45v.78H237a3.66,3.66,0,0,0,3.9,3.14,5.53,5.53,0,0,0,3.61-1.35l1.57,2.3a8.37,8.37,0,0,1-5.58,1.88A6.86,6.86,0,0,1,233.27,22,6.88,6.88,0,0,1,240.27,14.88Zm-3.33,5.82h6.66a3.13,3.13,0,0,0-3.33-3A3.25,3.25,0,0,0,236.94,20.7Z"/><path class="cls-1" d="M249.62,15.22h3.56v1.84a5.79,5.79,0,0,1,4.31-2.15v3.47a4.67,4.67,0,0,0-4.31,1.43v8.93h-3.56Z"/><path class="cls-2" d="M127.51,18.5A18.25,18.25,0,1,1,109.26.25,18.25,18.25,0,0,1,127.51,18.5Z"/><path class="cls-3" d="M103.31,26.8h-2.19V11.53h2.19V26.8Z"/><path class="cls-3" d="M106.54,11.53h5.93c5.64,0,8.12,4,8.12,7.64a7.71,7.71,0,0,1-8.09,7.64h-6Zm2.19,13.3h3.5c5,0,6.11-3.78,6.11-5.66,0-3.07-2-5.66-6.23-5.66h-3.38V24.83Z"/><path class="cls-3" d="M103.66,8.35a1.44,1.44,0,1,1-2.88,0,1.44,1.44,0,1,1,2.88,0Z"/></svg>