<svg id="Layer_1" data-name="Layer 1" xmlns="http://www.w3.org/2000/svg" viewBox="0 0 516.27 147.4"><defs><style>.cls-1{fill:#a7a9ac;}.cls-2{fill:#808285;}.cls-3{fill:#a6ce39;}</style></defs><title>ORCID_Member_CMYK</title><rect class="cls-1" x="283.66" y="5.6" width="3.94" height="141.55"/><path class="cls-2" d="M186.88,334.37a14.08,14.08,0,0,0-6.76-1.84,8.38,8.38,0,1,0,.19,16.75,14,14,0,0,0,6.76-1.95v1.53a14.51,14.51,0,0,1-6.74,1.78c-5.79,0-10.1-4.15-10.1-9.71a9.78,9.78,0,0,1,10-9.77,16.1,16.1,0,0,1,6.68,1.59Z" transform="translate(-169.88 -232.62)"/><path class="cls-2" d="M195.26,350.65a6.5,6.5,0,1,1,6.35-6.49A6.28,6.28,0,0,1,195.26,350.65Zm0-11.69a5.2,5.2,0,1,0,4.93,5.2A4.94,4.94,0,0,0,195.26,339Z" transform="translate(-169.88 -232.62)"/><path class="cls-2" d="M205.76,340.07h.06a4.48,4.48,0,0,1,4.12-2.42c2.67,0,4.65,1.75,4.65,5.12v7.63h-1.34v-7.12c0-2.81-1.2-4.31-3.39-4.31-1.81,0-3,.86-4.09,2.67v8.77h-1.34V337.9h1.34Z" transform="translate(-169.88 -232.62)"/><path class="cls-2" d="M219.35,340.07h.06a4.48,4.48,0,0,1,4.12-2.42c2.67,0,4.65,1.75,4.65,5.12v7.63h-1.34v-7.12c0-2.81-1.2-4.31-3.4-4.31-1.81,0-3,.86-4.09,2.67v8.77H218V337.9h1.34Z" transform="translate(-169.88 -232.62)"/><path class="cls-2" d="M232.34,343.69a5,5,0,0,0,5,5.65,7,7,0,0,0,4.65-1.87V349a7.51,7.51,0,0,1-4.82,1.67c-3.62,0-6.23-2.78-6.23-6.65,0-3.67,2.42-6.35,5.73-6.35,2.67,0,5.54,1.86,5.54,6Zm8.27-1.09c-.47-2.45-1.81-3.65-4-3.65a4.19,4.19,0,0,0-4.15,3.65Z" transform="translate(-169.88 -232.62)"/><path class="cls-2" d="M253.68,339.74a7.4,7.4,0,0,0-3.26-.78c-2.78,0-4.7,2.12-4.7,5.23s1.86,5.15,4.81,5.15a8.09,8.09,0,0,0,3.37-.72V350a10,10,0,0,1-3.48.64c-3.67,0-6.12-2.53-6.12-6.32s2.5-6.68,6.07-6.68a9.89,9.89,0,0,1,3.31.61Z" transform="translate(-169.88 -232.62)"/><path class="cls-2" d="M259.71,337.9h3.51V339h-3.51v7.43c0,2.14,0,2.92,1.87,2.92a4.73,4.73,0,0,0,2.28-.61V350a6.42,6.42,0,0,1-1.14.42,6.77,6.77,0,0,1-1.45.22,2.65,2.65,0,0,1-2.89-2.67v-9H255V337.9h3.37v-3l.92-1.17h.42Z" transform="translate(-169.88 -232.62)"/><path class="cls-2" d="M267.24,333.7h-1.34v-2.28h1.34Zm0,16.7h-1.34V337.9h1.34Z" transform="translate(-169.88 -232.62)"/><path class="cls-2" d="M272.09,340.07h.06a4.48,4.48,0,0,1,4.12-2.42c2.67,0,4.65,1.75,4.65,5.12v7.63h-1.34v-7.12c0-2.81-1.2-4.31-3.39-4.31-1.81,0-3,.86-4.09,2.67v8.77h-1.34V337.9h1.34Z" transform="translate(-169.88 -232.62)"/><path class="cls-2" d="M294,339h-2.84a4.31,4.31,0,0,1,1.73,3.31c0,5.59-7.1,3.76-7.1,6.18,0,2.73,8.18-.61,8.18,4.68,0,2.28-2.09,3.65-5.59,3.65-3.84,0-5.48-1.56-5.48-3.34,0-1.59,1.31-2.67,3.65-3v-.06c-1.34-.31-2-.92-2-1.78,0-1.11,1-1.59,2.51-2v-.06a4.27,4.27,0,0,1-3.34-4.15c0-2.09,1.31-4.45,5.32-4.45h5Zm-5.29,12.08c-1.56,0-4.54.22-4.54,2.31,0,1.47,1.53,2.31,4.29,2.31,2.56,0,4.23-.95,4.23-2.42C292.67,351.51,290.95,351.06,288.69,351.06ZM288.22,339a3.23,3.23,0,0,0-3.29,3.26,3.33,3.33,0,1,0,3.29-3.26Z" transform="translate(-169.88 -232.62)"/><path class="cls-2" d="M309.06,331.42c4.65,0,6.29,2.37,6.29,4.9,0,2.2-1.2,3.73-3.62,4.62a8.65,8.65,0,0,1,2.53,2.89l4.29,6.57h-1.73l-3.31-5.2c-2.28-3.59-3-3.9-5.29-3.9h-2.56v9.1h-1.47v-19Zm-3.4,8.66h3.15c3.34,0,5-1.45,5-3.73s-1.53-3.7-5-3.7h-3.09Z" transform="translate(-169.88 -232.62)"/><path class="cls-2" d="M320.28,343.69a5,5,0,0,0,5,5.65,7,7,0,0,0,4.65-1.87V349a7.51,7.51,0,0,1-4.82,1.67c-3.62,0-6.23-2.78-6.23-6.65,0-3.67,2.42-6.35,5.73-6.35,2.67,0,5.54,1.86,5.54,6Zm8.27-1.09c-.47-2.45-1.81-3.65-4-3.65a4.19,4.19,0,0,0-4.15,3.65Z" transform="translate(-169.88 -232.62)"/><path class="cls-2" d="M339.56,340.15a5.9,5.9,0,0,0-3.42-1.28c-1.5,0-2.67.92-2.67,2.12,0,3,6.49,1.86,6.49,6.21,0,1.95-1.78,3.45-4.09,3.45a7,7,0,0,1-3.76-1.14V348.2a8.23,8.23,0,0,0,3.92,1.14c1.53,0,2.64-.89,2.64-2.17,0-3-6.48-2.09-6.48-6.09,0-1.92,1.78-3.42,4-3.42a6.48,6.48,0,0,1,3.34,1.06Z" transform="translate(-169.88 -232.62)"/><path class="cls-2" d="M343.24,343.69a5,5,0,0,0,5,5.65,7,7,0,0,0,4.65-1.87V349a7.51,7.51,0,0,1-4.81,1.67c-3.62,0-6.23-2.78-6.23-6.65,0-3.67,2.42-6.35,5.73-6.35,2.67,0,5.54,1.86,5.54,6Zm8.27-1.09c-.47-2.45-1.81-3.65-4-3.65a4.19,4.19,0,0,0-4.15,3.65Z" transform="translate(-169.88 -232.62)"/><path class="cls-2" d="M365.71,349.34l-.22.17c-1.25.95-1.78,1.14-2.31,1.14s-.78-.31-.89-1.56a6.16,6.16,0,0,1-3.92,1.56,3.25,3.25,0,0,1-3.37-3.17c0-3.26,3.65-4.4,7.29-4.56v-1.59c0-1.67-.92-2.56-2.78-2.56a6,6,0,0,0-3.81,1.59V339a7.23,7.23,0,0,1,4-1.34c1.56,0,3.9.64,3.9,3.26v7.79c0,.5.08.64.31.64a5.54,5.54,0,0,0,1.78-1.11ZM362.29,344c-3.26-.14-6,1.28-6,3.45a2.25,2.25,0,0,0,2.48,2.06,5,5,0,0,0,3.48-1.61Z" transform="translate(-169.88 -232.62)"/><path class="cls-2" d="M375.55,340.38c-1.2-1.09-1.81-1.42-2.5-1.42-1.22,0-2.64,1.28-4,3.59v7.85h-1.34V337.9H369v3.28h.05c1.48-2.34,3-3.53,4.37-3.53.86,0,1.64.39,2.87,1.47Z" transform="translate(-169.88 -232.62)"/><path class="cls-2" d="M386,339.74a7.4,7.4,0,0,0-3.26-.78c-2.78,0-4.7,2.12-4.7,5.23s1.86,5.15,4.81,5.15a8.09,8.09,0,0,0,3.37-.72V350a10,10,0,0,1-3.48.64c-3.67,0-6.12-2.53-6.12-6.32s2.5-6.68,6.07-6.68a9.89,9.89,0,0,1,3.31.61Z" transform="translate(-169.88 -232.62)"/><path class="cls-2" d="M389.91,340.07H390c1.17-1.75,2.31-2.42,4.12-2.42,2.67,0,4.65,1.75,4.65,5.09v7.65h-1.34v-7.12c0-2.7-1-4.31-3.4-4.31-1.84,0-3,.89-4.09,2.67v8.77h-1.34v-19h1.34Z" transform="translate(-169.88 -232.62)"/><path class="cls-2" d="M180.59,378.71l-.22.17c-1.25.95-1.78,1.14-2.31,1.14s-.78-.31-.89-1.56a6.17,6.17,0,0,1-3.92,1.56,3.25,3.25,0,0,1-3.37-3.17c0-3.26,3.65-4.4,7.29-4.56V370.7c0-1.67-.92-2.56-2.78-2.56a6,6,0,0,0-3.81,1.59v-1.36a7.23,7.23,0,0,1,4-1.34c1.56,0,3.9.64,3.9,3.26v7.79c0,.5.08.64.31.64a5.54,5.54,0,0,0,1.78-1.11Zm-3.42-5.32c-3.26-.14-6,1.28-6,3.45a2.25,2.25,0,0,0,2.48,2.06,5,5,0,0,0,3.48-1.61Z" transform="translate(-169.88 -232.62)"/><path class="cls-2" d="M183.91,369.45H184a4.48,4.48,0,0,1,4.12-2.42c2.67,0,4.65,1.75,4.65,5.12v7.63h-1.34v-7.12c0-2.81-1.2-4.31-3.4-4.31-1.81,0-3,.86-4.09,2.67v8.77h-1.34v-12.5h1.34Z" transform="translate(-169.88 -232.62)"/><path class="cls-2" d="M206.84,379.77h-1.34v-1a5.8,5.8,0,0,1-3.7,1.22,6.32,6.32,0,0,1-6.32-6.51,6.22,6.22,0,0,1,6.32-6.48,7.49,7.49,0,0,1,3.7,1v-7.24h1.34Zm-1.34-10.27a6.2,6.2,0,0,0-3.65-1.17,4.83,4.83,0,0,0-5,5.09,5.12,5.12,0,0,0,5.23,5.29,5.35,5.35,0,0,0,3.37-1.14Z" transform="translate(-169.88 -232.62)"/><path class="cls-2" d="M223.35,360.79c4.65,0,6.29,2.37,6.29,4.9,0,2.2-1.2,3.73-3.62,4.62a8.66,8.66,0,0,1,2.53,2.89l4.29,6.57h-1.73l-3.31-5.2c-2.28-3.59-3-3.9-5.29-3.9H220v9.1h-1.48v-19ZM220,369.45h3.14c3.34,0,5-1.45,5-3.73s-1.53-3.7-5-3.7H220Z" transform="translate(-169.88 -232.62)"/><path class="cls-2" d="M234.56,373.06a5,5,0,0,0,5,5.65,7,7,0,0,0,4.65-1.87v1.5a7.51,7.51,0,0,1-4.81,1.67c-3.62,0-6.23-2.78-6.23-6.65,0-3.67,2.42-6.35,5.73-6.35,2.67,0,5.54,1.86,5.54,6Zm8.27-1.09c-.47-2.45-1.81-3.65-4-3.65a4.19,4.19,0,0,0-4.15,3.65Z" transform="translate(-169.88 -232.62)"/><path class="cls-2" d="M253.85,369.53a5.91,5.91,0,0,0-3.42-1.28c-1.5,0-2.67.92-2.67,2.12,0,3,6.48,1.86,6.48,6.21,0,1.95-1.78,3.45-4.09,3.45a7,7,0,0,1-3.76-1.14v-1.31a8.23,8.23,0,0,0,3.92,1.14c1.53,0,2.64-.89,2.64-2.17,0-3-6.49-2.09-6.49-6.09,0-1.92,1.78-3.42,4-3.42a6.49,6.49,0,0,1,3.34,1.06Z" transform="translate(-169.88 -232.62)"/><path class="cls-2" d="M257.52,373.06a5,5,0,0,0,5,5.65,7,7,0,0,0,4.65-1.87v1.5a7.51,7.51,0,0,1-4.82,1.67c-3.62,0-6.23-2.78-6.23-6.65,0-3.67,2.42-6.35,5.73-6.35,2.67,0,5.54,1.86,5.54,6Zm8.27-1.09c-.47-2.45-1.81-3.65-4-3.65a4.19,4.19,0,0,0-4.15,3.65Z" transform="translate(-169.88 -232.62)"/><path class="cls-2" d="M280,378.71l-.22.17c-1.25.95-1.78,1.14-2.31,1.14s-.78-.31-.89-1.56a6.17,6.17,0,0,1-3.92,1.56,3.25,3.25,0,0,1-3.37-3.17c0-3.26,3.65-4.4,7.29-4.56V370.7c0-1.67-.92-2.56-2.78-2.56a6,6,0,0,0-3.81,1.59v-1.36a7.23,7.23,0,0,1,4-1.34c1.56,0,3.9.64,3.9,3.26v7.79c0,.5.08.64.31.64A5.53,5.53,0,0,0,280,377.6Zm-3.42-5.32c-3.26-.14-6,1.28-6,3.45a2.24,2.24,0,0,0,2.48,2.06,5,5,0,0,0,3.48-1.61Z" transform="translate(-169.88 -232.62)"/><path class="cls-2" d="M289.84,369.75c-1.2-1.09-1.81-1.42-2.5-1.42-1.22,0-2.64,1.28-4,3.59v7.85H282v-12.5h1.34v3.28h.06c1.48-2.34,3-3.53,4.37-3.53.86,0,1.64.39,2.87,1.47Z" transform="translate(-169.88 -232.62)"/><path class="cls-2" d="M300.33,369.11a7.4,7.4,0,0,0-3.26-.78c-2.78,0-4.7,2.12-4.7,5.23s1.87,5.15,4.82,5.15a8.09,8.09,0,0,0,3.37-.72v1.39a10,10,0,0,1-3.48.64c-3.67,0-6.12-2.53-6.12-6.32S293.45,367,297,367a9.89,9.89,0,0,1,3.31.61Z" transform="translate(-169.88 -232.62)"/><path class="cls-2" d="M304.19,369.45h.06a4.48,4.48,0,0,1,4.12-2.42c2.67,0,4.65,1.75,4.65,5.09v7.65h-1.34v-7.12c0-2.7-1-4.31-3.4-4.31-1.84,0-3,.89-4.09,2.67v8.77h-1.34v-19h1.34Z" transform="translate(-169.88 -232.62)"/><path class="cls-2" d="M317.18,373.06a5,5,0,0,0,5,5.65,7,7,0,0,0,4.65-1.87v1.5A7.51,7.51,0,0,1,322,380c-3.62,0-6.23-2.78-6.23-6.65,0-3.67,2.42-6.35,5.73-6.35,2.67,0,5.54,1.86,5.54,6Zm8.27-1.09c-.47-2.45-1.81-3.65-4-3.65a4.19,4.19,0,0,0-4.15,3.65Z" transform="translate(-169.88 -232.62)"/><path class="cls-2" d="M337.64,369.75c-1.2-1.09-1.81-1.42-2.5-1.42-1.22,0-2.64,1.28-4,3.59v7.85h-1.34v-12.5h1.34v3.28h.06c1.48-2.34,3-3.53,4.37-3.53.86,0,1.64.39,2.87,1.47Z" transform="translate(-169.88 -232.62)"/><path class="cls-2" d="M346.72,369.53a5.9,5.9,0,0,0-3.42-1.28c-1.5,0-2.67.92-2.67,2.12,0,3,6.49,1.86,6.49,6.21,0,1.95-1.78,3.45-4.09,3.45a7,7,0,0,1-3.76-1.14v-1.31a8.23,8.23,0,0,0,3.92,1.14c1.53,0,2.64-.89,2.64-2.17,0-3-6.48-2.09-6.48-6.09,0-1.92,1.78-3.42,4-3.42a6.48,6.48,0,0,1,3.34,1.06Z" transform="translate(-169.88 -232.62)"/><path class="cls-1" d="M201.93,249.81c19.61,0,32,13.95,32,30.51,0,16-12,30.51-32.16,30.51-19.44,0-31.73-14.38-31.73-30.51C170,263.85,182.67,249.81,201.93,249.81Zm0,53.17c13.34,0,23.19-9.68,23.19-22.66s-9.85-22.66-23.19-22.66-23.1,9.59-23.1,22.66S188.68,303,201.93,303Z" transform="translate(-169.88 -232.62)"/><path class="cls-1" d="M258.54,250.6c12,0,19.52,6.36,19.52,16.65,0,6.89-3.57,12-9.94,14.55,5.4,3.57,8.72,9.07,13.25,16.48,2.53,4.1,4,6.1,8.11,11.77h-10.2l-7.84-12.2c-7.84-12.2-11.42-13.6-15.78-13.6h-3.57V310h-8.54V250.6Zm-6.45,26h5.49c9.15,0,11.77-4.71,11.68-9.67-.09-5.58-3.4-9-11.68-9h-5.49Z" transform="translate(-169.88 -232.62)"/><path class="cls-1" d="M342.21,263.85c-7.32-4.27-13.6-6.19-20.48-6.19-13.6,0-23.71,9.68-23.71,22.75,0,13.34,9.76,22.57,24.06,22.57,6.71,0,14-2.35,20.74-6.71v9.33a43.55,43.55,0,0,1-21.53,5.23c-22.31,0-32.08-17.17-32.08-29.64,0-18.13,13.68-31.38,32.6-31.38,6.1,0,12.29,1.48,20.4,4.88Z" transform="translate(-169.88 -232.62)"/><path class="cls-3" d="M375.18,250.6h23.1c22,0,31.64,15.69,31.64,29.72,0,15.25-11.94,29.72-31.55,29.72H375.18Zm8.54,51.77h13.6c19.35,0,23.79-14.73,23.79-22.05,0-11.94-7.58-22.05-24.23-22.05H383.72Z" transform="translate(-169.88 -232.62)"/><path class="cls-3" d="M363.27,310h-8.54V250.6h8.54V310Z" transform="translate(-169.88 -232.62)"/><path class="cls-3" d="M364.6,238.22a5.6,5.6,0,1,1-5.6-5.6A5.62,5.62,0,0,1,364.6,238.22Z" transform="translate(-169.88 -232.62)"/><path class="cls-1" d="M503.7,273.54h3.65v27.29h-3.93V279.6L495,290.14h-.72l-8.49-10.55v21.23h-3.91V273.54h3.7l9.07,11.21Z" transform="translate(-169.88 -232.62)"/><path class="cls-1" d="M528.06,292.15H515.42a5.87,5.87,0,0,0,1.73,4.1,5.7,5.7,0,0,0,4.11,1.52,10.7,10.7,0,0,0,6.48-2.19v3.48a11.86,11.86,0,0,1-3.25,1.56,13.6,13.6,0,0,1-3.78.47,8.48,8.48,0,0,1-4.8-1.23,9,9,0,0,1-2.94-3.31,10.14,10.14,0,0,1-1.1-4.81,9.56,9.56,0,0,1,2.32-6.67,7.77,7.77,0,0,1,6-2.57,7.11,7.11,0,0,1,5.7,2.5,10,10,0,0,1,2.13,6.7ZM515.5,290h9a5,5,0,0,0-1.27-3.28,4.08,4.08,0,0,0-3-1.15,4.39,4.39,0,0,0-3.13,1.15A5.72,5.72,0,0,0,515.5,290Z" transform="translate(-169.88 -232.62)"/><path class="cls-1" d="M546.63,287.78v13h-3.57v-10a7.84,7.84,0,0,0-.8-4.17,3.13,3.13,0,0,0-2.79-1.18,4.18,4.18,0,0,0-2,.51,9,9,0,0,0-2.12,1.8v13h-3.55v-18h3.55v2.36q2.72-2.71,5.31-2.71a5.84,5.84,0,0,1,5.29,3.24q2.85-3.28,6-3.28a5.49,5.49,0,0,1,4.31,1.91q1.69,1.91,1.69,5.84v10.61h-3.55V290.18a5.54,5.54,0,0,0-.92-3.44,3.13,3.13,0,0,0-2.64-1.19A5.46,5.46,0,0,0,546.63,287.78Z" transform="translate(-169.88 -232.62)"/><path class="cls-1" d="M562.59,273.54h3.55v10.61a8.21,8.21,0,0,1,4.92-1.68,7,7,0,0,1,5.59,2.58,9.94,9.94,0,0,1,2.17,6.62,9.28,9.28,0,0,1-2.59,6.9,9.4,9.4,0,0,1-6.92,2.57,19.4,19.4,0,0,1-3.66-.37,12.12,12.12,0,0,1-3.06-.94Zm3.55,14v9.73a12.87,12.87,0,0,0,3.73.55,4.92,4.92,0,0,0,3.86-1.68,6.25,6.25,0,0,0,1.49-4.32,6.58,6.58,0,0,0-1.4-4.36,4.51,4.51,0,0,0-3.64-1.68A6.27,6.27,0,0,0,566.14,287.54Z" transform="translate(-169.88 -232.62)"/><path class="cls-1" d="M598.06,292.15H585.42a5.87,5.87,0,0,0,1.73,4.1,5.7,5.7,0,0,0,4.11,1.52,10.7,10.7,0,0,0,6.48-2.19v3.48a11.86,11.86,0,0,1-3.25,1.56,13.6,13.6,0,0,1-3.78.47,8.48,8.48,0,0,1-4.8-1.23,9,9,0,0,1-2.94-3.31,10.14,10.14,0,0,1-1.1-4.81,9.56,9.56,0,0,1,2.32-6.67,7.77,7.77,0,0,1,6-2.57,7.11,7.11,0,0,1,5.7,2.5,10,10,0,0,1,2.13,6.7ZM585.5,290h9a5,5,0,0,0-1.27-3.28,4.08,4.08,0,0,0-3-1.15,4.39,4.39,0,0,0-3.13,1.15A5.72,5.72,0,0,0,585.5,290Z" transform="translate(-169.88 -232.62)"/><path class="cls-1" d="M605.71,282.86V287l.2-.31q2.58-4.16,5.16-4.16a6.35,6.35,0,0,1,4.2,2l-1.87,3.13A5.26,5.26,0,0,0,610,285.9a3.69,3.69,0,0,0-3,1.64,6.2,6.2,0,0,0-1.26,3.89v9.39h-3.57v-18Z" transform="translate(-169.88 -232.62)"/><path class="cls-1" d="M495.39,321.15a14.67,14.67,0,0,1,10.53,4,13.29,13.29,0,0,1,4.21,10,13.07,13.07,0,0,1-4.24,10,15.09,15.09,0,0,1-10.71,4,14.23,14.23,0,0,1-10.28-4,13.18,13.18,0,0,1-4.11-9.91,13.48,13.48,0,0,1,4.14-10.12A14.43,14.43,0,0,1,495.39,321.15Zm.16,3.71a10.59,10.59,0,0,0-7.7,2.93,10,10,0,0,0-3,7.48,9.8,9.8,0,0,0,3,7.34,11.23,11.23,0,0,0,15.19-.06,10,10,0,0,0,3.05-7.44,9.76,9.76,0,0,0-3.05-7.29A10.37,10.37,0,0,0,495.55,324.86Z" transform="translate(-169.88 -232.62)"/><path class="cls-1" d="M518.25,330.86V335l.2-.31q2.58-4.16,5.16-4.16a6.36,6.36,0,0,1,4.2,2l-1.87,3.13a5.26,5.26,0,0,0-3.44-1.76,3.69,3.69,0,0,0-3,1.64,6.2,6.2,0,0,0-1.26,3.89v9.39h-3.57v-18Z" transform="translate(-169.88 -232.62)"/><path class="cls-1" d="M529.37,337.07a5.5,5.5,0,0,1,2.1-4.54,9,9,0,0,1,5.73-1.67h7.4v2.77H541a7.45,7.45,0,0,1,1.46,2,4.71,4.71,0,0,1,.41,2,5.37,5.37,0,0,1-.8,2.76,5.63,5.63,0,0,1-2.06,2.08,12.55,12.55,0,0,1-4.13,1.15q-2,.29-2,1.39a1.18,1.18,0,0,0,.75,1,11.86,11.86,0,0,0,2.72.83,29.55,29.55,0,0,1,4.25,1.13,5.47,5.47,0,0,1,1.71,1.17,4.4,4.4,0,0,1,1.29,3.24,4.69,4.69,0,0,1-2.28,4.08A10.78,10.78,0,0,1,536.2,358a10.91,10.91,0,0,1-6.14-1.53,4.72,4.72,0,0,1-2.29-4.11q0-3.65,4.51-4.71-1.8-1.15-1.8-2.29a2.09,2.09,0,0,1,.77-1.56,4.79,4.79,0,0,1,2.08-1Q529.37,341,529.37,337.07Zm5.84,12.6a5.2,5.2,0,0,0-2.94.76,2.27,2.27,0,0,0-1.14,2q0,2.77,5,2.77a7.89,7.89,0,0,0,3.66-.69,2.15,2.15,0,0,0,1.3-2q0-1.25-1.64-2A9.79,9.79,0,0,0,535.21,349.67Zm.84-15.72a3.43,3.43,0,0,0-2.46,1,3.14,3.14,0,0,0-1,2.34,3,3,0,0,0,1,2.29,3.6,3.6,0,0,0,2.52.91,3.55,3.55,0,0,0,2.51-.93,3,3,0,0,0,1-2.31,3.05,3.05,0,0,0-1-2.34A3.6,3.6,0,0,0,536,333.94Z" transform="translate(-169.88 -232.62)"/><path class="cls-1" d="M558.64,338v7.64q0,.92.63.92a4.29,4.29,0,0,0,2-1v2.17a11.53,11.53,0,0,1-1.94,1.06,4.22,4.22,0,0,1-1.53.28q-2.29,0-2.7-1.8a7.73,7.73,0,0,1-4.82,1.76,4.26,4.26,0,0,1-3.12-1.24,4.21,4.21,0,0,1-1.25-3.12,4.39,4.39,0,0,1,1.22-3,8.28,8.28,0,0,1,3.47-2.12l4.55-1.56v-1q0-3.24-3.24-3.24-2.91,0-5.66,3v-3.89a7.38,7.38,0,0,1,6-2.44,6.87,6.87,0,0,1,4.67,1.52,4.8,4.8,0,0,1,1.05,1.3,4.68,4.68,0,0,1,.6,1.62A23.76,23.76,0,0,1,558.64,338Zm-3.5,7.25v-5.33l-2.38.92a8.06,8.06,0,0,0-2.57,1.46,2.63,2.63,0,0,0,0,3.64,2.52,2.52,0,0,0,1.85.7A4.47,4.47,0,0,0,555.15,345.27Z" transform="translate(-169.88 -232.62)"/><path class="cls-1" d="M568,330.86v2.29a7.15,7.15,0,0,1,5.41-2.64,6,6,0,0,1,3.12.87,5.66,5.66,0,0,1,2.2,2.38,11.38,11.38,0,0,1,.75,4.79v10.27h-3.55V338.59a7,7,0,0,0-.84-3.94,3.21,3.21,0,0,0-2.81-1.18A5.12,5.12,0,0,0,568,336v12.83h-3.63v-18Z" transform="translate(-169.88 -232.62)"/><path class="cls-1" d="M586.26,323.3a2.08,2.08,0,0,1,1.5.61,2,2,0,0,1,.62,1.48,2,2,0,0,1-.62,1.48,2,2,0,0,1-1.5.63,2,2,0,0,1-1.45-.63,2,2,0,0,1,0-2.93A2,2,0,0,1,586.26,323.3Zm-1.76,7.56h3.55v18H584.5Z" transform="translate(-169.88 -232.62)"/><path class="cls-1" d="M591.52,330.86h15.35l-9.52,14.65h9.52v3.32H591.13l9.45-14.65h-9.05Z" transform="translate(-169.88 -232.62)"/><path class="cls-1" d="M621.16,338v7.64q0,.92.63.92a4.29,4.29,0,0,0,2-1v2.17a11.53,11.53,0,0,1-1.94,1.06,4.22,4.22,0,0,1-1.53.28q-2.29,0-2.7-1.8a7.73,7.73,0,0,1-4.82,1.76,4.26,4.26,0,0,1-3.12-1.24,4.21,4.21,0,0,1-1.25-3.12,4.39,4.39,0,0,1,1.22-3,8.28,8.28,0,0,1,3.47-2.12l4.55-1.56v-1q0-3.24-3.24-3.24-2.91,0-5.66,3v-3.89a7.38,7.38,0,0,1,6-2.44,6.87,6.87,0,0,1,4.67,1.52,4.8,4.8,0,0,1,1.05,1.3,4.68,4.68,0,0,1,.6,1.62A23.76,23.76,0,0,1,621.16,338Zm-3.5,7.25v-5.33l-2.38.92a8.06,8.06,0,0,0-2.57,1.46,2.63,2.63,0,0,0,0,3.64,2.52,2.52,0,0,0,1.85.7A4.47,4.47,0,0,0,617.67,345.27Z" transform="translate(-169.88 -232.62)"/><path class="cls-1" d="M624.43,333.71l6.68-6.56v3.71h5.68v3.2h-5.68v8.8q0,3.08,2.56,3.08a7.93,7.93,0,0,0,4-1.27V348a9,9,0,0,1-4.47,1.15,5.93,5.93,0,0,1-4.06-1.43,4.09,4.09,0,0,1-.84-1,5.16,5.16,0,0,1-.56-1.41,15.88,15.88,0,0,1-.22-3.31v-8h-3.12Z" transform="translate(-169.88 -232.62)"/><path class="cls-1" d="M642.1,323.3a2.08,2.08,0,0,1,1.5.61,2,2,0,0,1,.63,1.48,2,2,0,0,1-.62,1.48,2,2,0,0,1-1.5.63,2,2,0,0,1-1.45-.63,2,2,0,0,1,0-2.93A2,2,0,0,1,642.1,323.3Zm-1.76,7.56h3.55v18h-3.55Z" transform="translate(-169.88 -232.62)"/><path class="cls-1" d="M657.63,330.82a9.37,9.37,0,0,1,6.82,2.65,8.9,8.9,0,0,1,2.71,6.65,8.45,8.45,0,0,1-2.75,6.46,9.77,9.77,0,0,1-6.93,2.57,9.37,9.37,0,0,1-6.76-2.61,9.21,9.21,0,0,1,0-13.09A9.56,9.56,0,0,1,657.63,330.82Zm-.2,3.2a5.62,5.62,0,0,0-4.2,1.68,5.87,5.87,0,0,0-1.64,4.28,5.61,5.61,0,0,0,1.68,4.21,5.94,5.94,0,0,0,4.32,1.63,5.84,5.84,0,0,0,4.29-1.65,6.11,6.11,0,0,0-.07-8.47A6,6,0,0,0,657.43,334Z" transform="translate(-169.88 -232.62)"/><path class="cls-1" d="M674.66,330.86v2.29a7.15,7.15,0,0,1,5.41-2.64,6,6,0,0,1,3.12.87,5.66,5.66,0,0,1,2.2,2.38,11.38,11.38,0,0,1,.75,4.79v10.27h-3.55V338.59a7,7,0,0,0-.84-3.94,3.21,3.21,0,0,0-2.81-1.18,5.12,5.12,0,0,0-4.28,2.52v12.83H671v-18Z" transform="translate(-169.88 -232.62)"/></svg>