<?xml version="1.0" encoding="utf-8"?>
<!-- Generator: Adobe Illustrator 22.1.0, SVG Export Plug-In . SVG Version: 6.00 Build 0)  -->
<svg version="1.1" id="Layer_1" xmlns="http://www.w3.org/2000/svg" xmlns:xlink="http://www.w3.org/1999/xlink" x="0px" y="0px"
	 viewBox="0 0 424.4 70.6" style="enable-background:new 0 0 424.4 70.6;" xml:space="preserve">
<style type="text/css">
	.st0{fill:#002855;}
</style>
<title>Asset 1</title>
<g id="Layer_2_1_">
	<g id="Layer_1-2">
		<path class="st0" d="M372,64.3l6.8-18l1.2,1c4.2,3.4,9.8,6.3,15.2,6.4c4.8,0.1,7.1-1.2,6.5-5.2c-0.5-3-3.9-3.5-6-4l-4.7-0.9
			c-9.1-1.7-16.7-7.3-16.7-17.9c0-16,13.8-25,27.7-25c7.2-0.1,14.3,2,20.3,5.9l-5.9,15.9c-3.2-2.3-8.1-5.6-14.3-5.8
			c-2-0.1-6.7,1-5.2,5.7c0.6,2,3.5,2.9,5.3,3.3l5.3,1.3c9.9,2.3,17,7.9,17,19.4c0,16.1-13.9,24.1-27.8,24.1
			C388,70.4,379.6,68.3,372,64.3"/>
		<rect x="343.6" y="1.8" class="st0" width="23.3" height="67.7"/>
		<polygon class="st0" points="316.9,1.8 341.2,1.8 316.4,69.5 296.7,69.5 272,1.8 296.2,1.8 306.5,42.6 		"/>
		<path class="st0" d="M214.5,69.5h24.6L241,61h17.6l2.3,8.5h24.6L262.5,1.8h-25.8L214.5,69.5z M249.8,21.3L249.8,21.3
			c0.4,2.9,4.7,23.6,4.7,23.6h-9.3L249.8,21.3z"/>
		<path class="st0" d="M177.4,50h1.6c7.8,0,13.6-4.7,13.6-13.5c0-9.5-5.1-14.8-13.7-14.8h-1.5L177.4,50z M154,1.8h23.9
			c21.7,0,38.2,9.9,38.2,34.8c0,20-13.5,32.9-32.4,32.9H154V1.8z"/>
		<path class="st0" d="M139.8,3.9l1.3,11.1c0.3,2.6,1.8,9-0.1,8.1c-1.2-0.5-2.1-3.4-3.1-5.9c-0.5-1.3-2.8-7.4-3.4-7.9
			c-2.9-2.2-10.2-4.6-15.1-4.7c-14.9-0.1-24.8,11-24.8,30.5c0,14,6.7,30.8,23.8,30.8c6.1,0,17.8-1.9,21-10.6
			c1.4-3.9,2.8-7.4,3.7-6.4c0.7,0.8-0.2,3.9-0.6,5.6c-2,8.1-2.1,10.5-2.8,10.8c-7.7,3.9-17.6,5.2-26.3,5.2c-27.5,0-37-16.1-37-32.1
			c0-27.9,17.1-39.4,43.7-38.4C126.8,0.3,133.5,1.6,139.8,3.9"/>
		<path class="st0" d="M58.5,5.1l-4.4-1.5c-1.5-1.3,0.3-1.7,0.3-1.7S60.8,3,76.7,1.7c0,0,1.4,0.3,0.4,1.4l-5.2,2.2
			c-3.4,1.5-3.4,0.6-3.4,4.4v34.5c0,27-27.5,26.4-32.8,26.4c-2.5,0-27.5,0-27.5-21.7V12.4c0-6.4,0.7-6.2-1.4-7L0.3,3
			c0,0-1.1-1.5,0.8-1.4c10.1,0.9,20.2,0.9,30.3,0.1c0,0,1.5,0.4,0.5,1.5l-5.1,1.5c-4,1.8-3.5,0.4-3.6,4.6l0.1,36
			C23.4,54.1,27.9,65,42,65c19.5,0,19.6-16.8,19.6-20.6V8.8C61.8,5.4,61.4,6.3,58.5,5.1"/>
	</g>
</g>
</svg>
